<svg xmlns="http://www.w3.org/2000/svg" version="1.1" xmlns:xlink="http://www.w3.org/1999/xlink" viewBox="0 0 1422 800" style="overflow: hidden; display: block;" width="1422" height="800"><defs></defs><g id="two-0" transform="matrix(1 0 0 1 0 0)" opacity="1"></g><path d="M 710.3282219747999 184.99444580078125 Q 710.3282219747999 184.99444580078125 710.3638819108958 194.60635833740236 710.3995418469916 204.21827087402343 710.52278288723 212.78880272574975 710.6460239274686 221.3593345774761 710.9861712096325 230.6131612347228 711.3263184917964 239.86698789196953 711.7242131750287 249.90499779974843 712.122107858261 259.94300770752733 712.1159556174332 271.4091751181856 712.1098033766053 282.8753425288439 711.8639588196859 295.43011116450566 711.6181142627665 307.9848798001675 711.4148158681642 321.64741725441525 711.2115174735617 335.30995470866293 711.0535680806615 349.7661441737505 710.8956186877613 364.22233363883805 710.4553141734643 377.81676745102754 710.0150096591674 391.4112012632171 709.4694612204872 405.51166653765165 708.9239127818071 419.6121318120862 708.0202504996059 433.6904998844449 707.1165882174047 447.76886795680355 706.3959918622468 461.36889038900347 705.6753955070888 474.96891282120333 704.7084049344112 487.56924898863906 703.7414143617335 500.1695851560748 702.877979854425 511.02597116791037 702.0145453471165 521.882357179746 701.521644084333 531.2359341353747 701.0287428215495 540.5895110910034 700.7055657697515 548.145966157238 700.3823887179536 555.7024212234728 699.7949657267545 565.9225109244943 699.2075427355553 576.1426006255158 699.1775780247458 582.1528531893114 699.1476133139362 588.1631057531071 698.8320357255734 589.7203229129464 698.5164581372107 591.2775400727855 697.7201639895064 592.6524692082345 696.9238698418021 594.0273983436834 695.7302313422222 595.0760840113146 694.5365928426422 596.1247696789459 693.0705842571825 596.7374142125321 691.6045756717228 597.3500587461184 690.0196884862698 597.4625181012708 688.4348013008168 597.5749774564232 686.896973622057 597.1754771089709 685.359145943297 596.7759767615187 684.0293887351435 595.9063445032978 682.69963152699 595.036712245077 681.7171707201583 593.7879988030838 680.7347099133266 592.5392853610908 680.2024094136366 591.0422313623305 679.6701089139465 589.5451773635701 679.6437007242292 587.9565247568967 679.617292534512 586.3678721502232 680.0995415992021 584.8539532829188 680.5817906638922 583.3400344156145 681.5222053786151 582.0593569927219 682.4626200933382 580.7786795698291 683.7627387892171 579.865330855591 685.0628574850962 578.9519821413528 686.5865573914746 578.5015899872506 688.1102572978531 578.0511978331483 689.6980066323155 578.1109184166085 691.2857559667779 578.1706390000686 692.7713169548808 578.7342195602382 694.2568779429838 579.2978001204077 695.484711957123 580.3062336238661 696.7125459712622 581.3146671273245 697.5540984660406 582.662370320059 698.3956509608189 584.0100735127936 698.7628111678848 585.5559415147659 699.1299713749506 587.1018095167383 698.9842975237034 588.6839895400724 698.8386236724562 590.2661695634064 698.1953678535756 591.7190069420042 697.5521120346949 593.171844320602 696.4786233022207 594.3432265974125 695.4051345697466 595.5146088742229 694.0138074773424 596.281892015649 692.6224803849383 597.0491751570752 691.0589872464536 597.3320244156666 689.4954941079689 597.6148736742582 687.923533067725 597.3836746579757 686.3515720274812 597.1524756416931 684.9357278213492 596.4314349485717 683.5198836152172 595.7103942554503 682.4083955053255 594.5750050363963 681.2969073954339 593.4396158173422 680.6061484802926 592.0087536233041 679.9153895651515 590.5778914292661 679.7176824855187 589.0013679096705 679.5199754058858 587.4248443900751 679.5199200362831 587.4263164629292 679.5198646666805 587.4277885357834 680.2716475128029 580.641869694475 681.0234303589255 573.8559508531666 682.7693679833815 564.0995121194554 684.5153056078374 554.3430733857442 685.4791660319422 546.875365395806 686.4430264560469 539.4076574058678 687.4706756593121 529.9955178069903 688.4983248625771 520.5833782081128 689.7048831510724 509.90131924794844 690.9114414395677 499.21926028778404 691.7995587147832 486.77271320883193 692.6876759899988 474.3261661298798 693.316493263615 460.6550833074816 693.9453105372314 446.98400048508336 694.7090487165765 433.08107748561645 695.4727868959214 419.17815448614954 695.8349876475521 405.1340762431223 696.1971883991828 391.0899980000951 696.3849913260124 377.6634966115013 696.572794252842 364.2369952229074 696.3850542917285 349.79275603024655 696.1973143306149 335.3485168375857 695.923920481393 321.719338826451 695.650526632171 308.0901608153164 695.2397515937939 295.63064849038176 694.8289765554167 283.1711361654472 694.434752593512 271.9661873136958 694.0405286316072 260.7612384619444 693.5253133828937 250.6259560840902 693.0100981341802 240.490673706236 692.7094418885121 230.92518387712408 692.4087856428439 221.35969404801216 692.5320266830824 212.78898246101778 692.6552677233209 204.21827087402343 692.6909276594167 194.60635833740236 692.7265875955126 184.99444580078125 692.8544635726543 183.94132622910809 692.9823395497959 182.88820665743495 693.3585353234213 181.89629444474807 693.7347310970466 180.90438223206118 694.337382151117 180.03132736276672 694.9400332051874 179.15827249347223 695.7341134321249 178.45481695759386 696.5281936590624 177.7513614217155 697.4675510787675 177.25839008805022 698.4069084984727 176.76541875438494 699.4369476135769 176.51158314000753 700.4669867286811 176.2577475256301 701.5278416174183 176.2578005683746 702.5886965061553 176.25785361111906 703.618710232548 176.51179222813863 704.6487239589405 176.7657308451582 705.5880320768157 177.25879611210044 706.5273401946909 177.75186137904268 707.3213500721045 178.4553963194263 708.115359949518 179.15893125980998 708.7179236950884 180.03204638984448 709.3204874406588 180.90516151987902 709.6965840211819 181.89711134718362 710.0726806017052 182.88906117448826 710.2004512662505 183.9421935284935 710.3282219307958 184.99532588249875 710.3282219527979 184.99488584163998 Z" fill="hsl(159, 10%, 55%)"></path><path d="M 642.9209516602933 516.3066914308998 Q 642.9209516602933 516.3066914308998 645.3693310276938 521.4903391471707 647.8177103950943 526.6739868634418 651.632021637078 533.4097027298603 655.4463328790616 540.145418596279 659.3733784525512 545.7016084201246 663.3004240260408 551.2577982439701 667.3168729871385 557.8736895441609 671.3333219482362 564.4895808443517 675.093436727234 569.268949239641 678.8535515062318 574.0483176349303 682.4704492914823 578.2141670709993 686.0873470767326 582.3800165070685 689.834246279128 578.3562665904185 693.5811454815234 574.3325166737686 697.6129816552889 570.4152458260812 701.6448178290544 566.4979749783937 705.7377539175462 562.4509287118303 709.830690006038 558.4038824452671 714.238434502182 554.0319660336049 718.646178998326 549.6600496219429 723.5897275885178 544.6566224787241 728.5332761787096 539.6531953355054 733.0831752172816 535.2391604184197 737.6330742558536 530.8251255013339 742.0531483930779 525.8811569834197 746.4732225303023 520.9371884655055 748.5024051561104 519.2617477761081 750.5315877819183 517.5863070867107 752.0119049072595 516.7109655554982 753.4922220326006 515.8356240242858 755.1745508325832 515.4787887729545 756.8568796325658 515.1219535216233 758.56507983774 515.3209852951829 760.2732800429142 515.5200170687425 761.8285026408772 516.254077187962 763.3837252388403 516.9881373071815 764.6231380130465 518.1803694838056 765.8625507872528 519.3726016604298 766.6563868930696 520.8981788708472 767.4502229988864 522.4237560812647 767.7153675864824 524.1229499888315 767.9805121740785 525.8221438963982 767.689204535141 527.5170484504484 767.3978968962036 529.2119530044987 766.5806370174273 530.725111250812 765.7633771386509 532.2382694971253 764.505732345079 533.4112533678776 763.2480875515072 534.58423723863 761.6817335850128 535.2942350129159 760.1153796185185 536.0042327872019 758.4043141528709 536.1769075106325 756.6932486872234 536.3495822340632 755.0166207283535 535.9668548175136 753.3399927694834 535.5841274009641 751.8733457072713 534.6860695059772 750.4066986450591 533.7880116109905 749.3035908140758 532.4686501362357 748.2004829830926 531.149288661481 747.5764100644342 529.5467611016429 746.9523371457759 527.9442335418048 746.8726397387652 526.2263249554244 746.7929423317546 524.5084163690441 747.2659647759438 522.8549922385994 747.738987220133 521.2015681081548 748.7152039407497 519.7857423765648 749.6914206613662 518.3699166449749 751.0686215100654 517.3399266400789 752.4458223587646 516.309936635183 754.079814043142 515.7736225823845 755.7138057275193 515.237308529586 757.4335088868886 515.2508226517862 759.153212046258 515.2643367739864 760.7785733058756 515.8262641390236 762.4039345654933 516.3881915040607 763.7647781724237 517.439698168481 765.1256217793541 518.4912048329012 766.0794670487237 519.9221977713689 767.0333123180934 521.3531907098367 767.4802913984087 523.0138445839489 767.9272704787239 524.6744984580612 767.8205845422848 526.3909423688283 767.7138986058457 528.1073862795955 767.0647176983596 529.6999080964631 766.4155367908735 531.2924299133306 765.2918303247213 532.5942921816875 764.1681238585693 533.8961544500444 764.1693470971306 533.895131709831 764.1705703356921 533.8941089696176 760.1807284436686 537.8647029215549 756.1908865516451 541.8352968734921 751.9160464304634 546.0520952445995 747.6412063092818 550.2688936157069 743.0603028782709 554.6267488308372 738.4793994472601 558.9846040459673 733.8254563368077 564.0195379249287 729.1715132263555 569.0544718038901 724.830623228666 573.4001675672235 720.4897332309765 577.745863330557 715.3758109238307 582.4817056111258 710.2618886166849 587.2175478916945 705.9509711188052 592.2506765975031 701.6400536209255 597.2838053033117 697.9032542179593 600.1114983854911 694.166454814993 602.9391914676706 686.7837473278599 602.3980101124037 679.4010398407269 601.8568287571366 675.5235705944731 598.589037467146 671.6461013482194 595.3212461771556 667.9870948524003 590.8154707232386 664.3280883565814 586.3096952693215 659.6466388730221 579.9756063807617 654.9651893894628 573.6415174922021 651.1818013071671 567.243600776949 647.3984132248714 560.845684061696 643.5307356170119 555.0179695447279 639.6630580091526 549.1902550277597 635.7109581087869 541.947033313116 631.7588582084213 534.7038115984724 629.0808795435953 529.6347783455051 626.4029008787692 524.5657450925377 626.028758965098 523.5174551028947 625.6546170514268 522.4691651132518 625.5422277552371 521.3617976403445 625.4298384590475 520.2544301674374 625.5857338515143 519.1523454608205 625.7416292439812 518.0502607542037 626.1567486775696 517.0175120288071 626.5718681111581 515.9847633034105 627.2220848248837 515.0813739636778 627.8723015386095 514.1779846239451 628.7198249065203 513.456459700747 629.5673482744312 512.7349347775488 630.5629201985635 512.2372093333223 631.5584921226958 511.73948388909577 632.6442499160423 511.4944857500448 633.7300077093888 511.24948761099387 634.8428470779861 511.27145608047135 635.9556864465833 511.2934245499488 637.0309291140418 511.5810828194765 638.1061717815004 511.8687410890041 639.0813245934676 512.4053704464415 640.0564774054346 512.9419998038788 640.8748644346615 513.6964113257582 641.6932514638884 514.4508228476375 642.3073080177844 515.3791701008613 642.9213645716806 516.3075173540851 642.9211581159869 516.3071043924924 Z" fill="hsl(159, 10%, 55%)"></path></svg>